<svg width="31" height="31" viewBox="0 0 31 31" fill="none" xmlns="http://www.w3.org/2000/svg">
<rect width="31" height="31" fill="white"/>
<path d="M12.2574 4.53217H11.5535V5.24052H12.2574V4.53217Z" fill="black"/>
<path d="M12.9607 4.53217H12.2568V5.24052H12.9607V4.53217Z" fill="black"/>
<path d="M14.369 4.53217H13.665V5.24052H14.369V4.53217Z" fill="black"/>
<path d="M15.0738 4.53217H14.3699V5.24052H15.0738V4.53217Z" fill="black"/>
<path d="M16.482 4.53217H15.7781V5.24052H16.482V4.53217Z" fill="black"/>
<path d="M17.1856 4.53217H16.4817V5.24052H17.1856V4.53217Z" fill="black"/>
<path d="M18.5938 4.53217H17.8899V5.24052H18.5938V4.53217Z" fill="black"/>
<path d="M19.2986 4.53217H18.5947V5.24052H19.2986V4.53217Z" fill="black"/>
<path d="M20.7068 4.53217H20.0029V5.24052H20.7068V4.53217Z" fill="black"/>
<path d="M21.4102 4.53217H20.7063V5.24052H21.4102V4.53217Z" fill="black"/>
<path d="M22.8187 4.53217H22.1147V5.24052H22.8187V4.53217Z" fill="black"/>
<path d="M23.5235 4.53217H22.8196V5.24052H23.5235V4.53217Z" fill="black"/>
<path d="M11.5523 5.24051H10.8484V5.94886H11.5523V5.24051Z" fill="black"/>
<path d="M12.9607 5.24051H12.2568V5.94886H12.9607V5.24051Z" fill="black"/>
<path d="M13.6656 5.24051H12.9617V5.94886H13.6656V5.24051Z" fill="black"/>
<path d="M15.0738 5.24051H14.3699V5.94886H15.0738V5.24051Z" fill="black"/>
<path d="M15.7772 5.24051H15.0732V5.94886H15.7772V5.24051Z" fill="black"/>
<path d="M17.1856 5.24051H16.4817V5.94886H17.1856V5.24051Z" fill="black"/>
<path d="M17.8904 5.24051H17.1865V5.94886H17.8904V5.24051Z" fill="black"/>
<path d="M19.2986 5.24051H18.5947V5.94886H19.2986V5.24051Z" fill="black"/>
<path d="M20.002 5.24051H19.2981V5.94886H20.002V5.24051Z" fill="black"/>
<path d="M21.4102 5.24051H20.7063V5.94886H21.4102V5.24051Z" fill="black"/>
<path d="M22.1153 5.24051H21.4114V5.94886H22.1153V5.24051Z" fill="black"/>
<path d="M23.5235 5.24051H22.8196V5.94886H23.5235V5.24051Z" fill="black"/>
<path d="M24.2269 5.24051H23.5229V5.94886H24.2269V5.24051Z" fill="black"/>
<path d="M24.9319 5.24051H24.228V5.94886H24.9319V5.24051Z" fill="black"/>
<path d="M10.8489 5.94733H10.145V6.65568H10.8489V5.94733Z" fill="black"/>
<path d="M12.2574 5.94733H11.5535V6.65568H12.2574V5.94733Z" fill="black"/>
<path d="M14.369 5.94733H13.665V6.65568H14.369V5.94733Z" fill="black"/>
<path d="M16.482 5.94733H15.7781V6.65568H16.482V5.94733Z" fill="black"/>
<path d="M18.5938 5.94733H17.8899V6.65568H18.5938V5.94733Z" fill="black"/>
<path d="M20.002 5.94733H19.2981V6.65568H20.002V5.94733Z" fill="black"/>
<path d="M20.7068 5.94733H20.0029V6.65568H20.7068V5.94733Z" fill="black"/>
<path d="M21.4102 5.94733H20.7063V6.65568H21.4102V5.94733Z" fill="black"/>
<path d="M22.8187 5.94733H22.1147V6.65568H22.8187V5.94733Z" fill="black"/>
<path d="M24.9319 5.94733H24.228V6.65568H24.9319V5.94733Z" fill="black"/>
<path d="M25.6351 5.94733H24.9312V6.65568H25.6351V5.94733Z" fill="black"/>
<path d="M10.8489 6.65567H10.145V7.36402H10.8489V6.65567Z" fill="black"/>
<path d="M24.2269 6.65567H23.5229V7.36402H24.2269V6.65567Z" fill="black"/>
<path d="M26.3401 6.65567H25.6362V7.36402H26.3401V6.65567Z" fill="black"/>
<path d="M10.1441 7.36249H9.44019V8.07084H10.1441V7.36249Z" fill="black"/>
<path d="M24.2269 7.36249H23.5229V8.07084H24.2269V7.36249Z" fill="black"/>
<path d="M26.3401 7.36249H25.6362V8.07084H26.3401V7.36249Z" fill="black"/>
<path d="M10.1441 8.07083H9.44019V8.77918H10.1441V8.07083Z" fill="black"/>
<path d="M23.5235 8.07083H22.8196V8.77918H23.5235V8.07083Z" fill="black"/>
<path d="M26.3401 8.07083H25.6362V8.77918H26.3401V8.07083Z" fill="black"/>
<path d="M9.44073 8.77762H8.73682V9.48597H9.44073V8.77762Z" fill="black"/>
<path d="M23.5235 8.77762H22.8196V9.48597H23.5235V8.77762Z" fill="black"/>
<path d="M23.5235 9.48599H22.8196V10.1943H23.5235V9.48599Z" fill="black"/>
<path d="M26.3401 8.77762H25.6362V9.48597H26.3401V8.77762Z" fill="black"/>
<path d="M9.44073 9.48599H8.73682V10.1943H9.44073V9.48599Z" fill="black"/>
<path d="M22.8187 9.48599H22.1147V10.1943H22.8187V9.48599Z" fill="black"/>
<path d="M26.3401 9.48599H25.6362V10.1943H26.3401V9.48599Z" fill="black"/>
<path d="M8.7359 10.1928H8.03198V10.9011H8.7359V10.1928Z" fill="black"/>
<path d="M22.8187 10.1928H22.1147V10.9011H22.8187V10.1928Z" fill="black"/>
<path d="M26.3401 10.1928H25.6362V10.9011H26.3401V10.1928Z" fill="black"/>
<path d="M8.7359 10.9011H8.03198V11.6095H8.7359V10.9011Z" fill="black"/>
<path d="M22.1153 10.9011H21.4114V11.6095H22.1153V10.9011Z" fill="black"/>
<path d="M22.1153 11.6079H21.4114V12.3163H22.1153V11.6079Z" fill="black"/>
<path d="M26.3401 10.9011H25.6362V11.6095H26.3401V10.9011Z" fill="black"/>
<path d="M8.03253 11.6079H7.32861V12.3163H8.03253V11.6079Z" fill="black"/>
<path d="M22.1153 13.7314H21.4114V14.4398H22.1153V13.7314Z" fill="black"/>
<path d="M21.4102 13.7314H20.7063V14.4398H21.4102V13.7314Z" fill="black"/>
<path d="M22.8187 13.7314H22.1147V14.4398H22.8187V13.7314Z" fill="black"/>
<path d="M23.5235 13.7314H22.8196V14.4398H23.5235V13.7314Z" fill="black"/>
<path d="M23.5235 10.9011H22.8196V11.6095H23.5235V10.9011Z" fill="black"/>
<path d="M22.8187 10.9011H22.1147V11.6095H22.8187V10.9011Z" fill="black"/>
<path d="M26.3401 11.6079H25.6362V12.3163H26.3401V11.6079Z" fill="black"/>
<path d="M8.03253 12.3163H7.32861V13.0246H8.03253V12.3163Z" fill="black"/>
<path d="M21.4102 12.3163H20.7063V13.0246H21.4102V12.3163Z" fill="black"/>
<path d="M26.3401 12.3163H25.6362V13.0246H26.3401V12.3163Z" fill="black"/>
<path d="M7.32769 13.0231H6.62378V13.7315H7.32769V13.0231Z" fill="black"/>
<path d="M21.4102 13.0231H20.7063V13.7315H21.4102V13.0231Z" fill="black"/>
<path d="M26.3401 13.0231H25.6362V13.7315H26.3401V13.0231Z" fill="black"/>
<path d="M7.32769 13.7314H6.62378V14.4398H7.32769V13.7314Z" fill="black"/>
<path d="M20.7068 13.7314H20.0029V14.4398H20.7068V13.7314Z" fill="black"/>
<path d="M26.3401 13.7314H25.6362V14.4398H26.3401V13.7314Z" fill="black"/>
<path d="M6.62408 14.4382H5.92017V15.1466H6.62408V14.4382Z" fill="black"/>
<path d="M20.7068 14.4382H20.0029V15.1466H20.7068V14.4382Z" fill="black"/>
<path d="M20.7068 16.5617H20.0029V17.2701H20.7068V16.5617Z" fill="black"/>
<path d="M20.002 16.5617H19.2981V17.2701H20.002V16.5617Z" fill="black"/>
<path d="M21.4102 16.5617H20.7063V17.2701H21.4102V16.5617Z" fill="black"/>
<path d="M22.1153 16.5617H21.4114V17.2701H22.1153V16.5617Z" fill="black"/>
<path d="M22.8187 16.5617H22.1147V17.2701H22.8187V16.5617Z" fill="black"/>
<path d="M23.5235 16.5617H22.8196V17.2701H23.5235V16.5617Z" fill="black"/>
<path d="M26.3401 14.4382H25.6362V15.1466H26.3401V14.4382Z" fill="black"/>
<path d="M6.62408 15.1466H5.92017V15.855H6.62408V15.1466Z" fill="black"/>
<path d="M20.002 15.1466H19.2981V15.855H20.002V15.1466Z" fill="black"/>
<path d="M16.482 10.9011H15.7781V11.6095H16.482V10.9011Z" fill="black"/>
<path d="M15.7772 10.9011H15.0732V11.6095H15.7772V10.9011Z" fill="black"/>
<path d="M15.0738 10.9011H14.3699V11.6095H15.0738V10.9011Z" fill="black"/>
<path d="M14.369 10.9011H13.665V11.6095H14.369V10.9011Z" fill="black"/>
<path d="M13.6656 10.9011H12.9617V11.6095H13.6656V10.9011Z" fill="black"/>
<path d="M12.9607 10.9011H12.2568V11.6095H12.9607V10.9011Z" fill="black"/>
<path d="M12.2571 10.9011H11.5532V11.6095H12.2571V10.9011Z" fill="black"/>
<path d="M11.5523 10.9011H10.8484V11.6095H11.5523V10.9011Z" fill="black"/>
<path d="M17.1854 10.9011H16.4814V11.6095H17.1854V10.9011Z" fill="black"/>
<path d="M17.8904 10.9011H17.1865V11.6095H17.8904V10.9011Z" fill="black"/>
<path d="M16.482 13.7314H15.7781V14.4398H16.482V13.7314Z" fill="black"/>
<path d="M15.7772 13.7314H15.0732V14.4398H15.7772V13.7314Z" fill="black"/>
<path d="M15.0738 13.7314H14.3699V14.4398H15.0738V13.7314Z" fill="black"/>
<path d="M14.369 13.7314H13.665V14.4398H14.369V13.7314Z" fill="black"/>
<path d="M13.6656 13.7314H12.9617V14.4398H13.6656V13.7314Z" fill="black"/>
<path d="M12.9607 13.7314H12.2568V14.4398H12.9607V13.7314Z" fill="black"/>
<path d="M12.2571 13.7314H11.5532V14.4398H12.2571V13.7314Z" fill="black"/>
<path d="M11.5523 13.7314H10.8484V14.4398H11.5523V13.7314Z" fill="black"/>
<path d="M10.8489 13.7314H10.145V14.4398H10.8489V13.7314Z" fill="black"/>
<path d="M10.1441 13.7314H9.44019V14.4398H10.1441V13.7314Z" fill="black"/>
<path d="M17.1854 13.7314H16.4814V14.4398H17.1854V13.7314Z" fill="black"/>
<path d="M26.3401 15.1466H25.6362V15.855H26.3401V15.1466Z" fill="black"/>
<path d="M5.91925 15.8534H5.21533V16.5617H5.91925V15.8534Z" fill="black"/>
<path d="M20.002 15.8534H19.2981V16.5617H20.002V15.8534Z" fill="black"/>
<path d="M26.3401 15.8534H25.6362V16.5617H26.3401V15.8534Z" fill="black"/>
<path d="M5.91925 16.5617H5.21533V17.2701H5.91925V16.5617Z" fill="black"/>
<path d="M5.21588 17.2686H4.51196V17.9769H5.21588V17.2686Z" fill="black"/>
<path d="M5.21588 17.9769H4.51196V18.6853H5.21588V17.9769Z" fill="black"/>
<path d="M19.2986 16.5617H18.5947V17.2701H19.2986V16.5617Z" fill="black"/>
<path d="M26.3401 16.5617H25.6362V17.2701H26.3401V16.5617Z" fill="black"/>
<path d="M19.2986 17.2686H18.5947V17.9769H19.2986V17.2686Z" fill="black"/>
<path d="M18.5938 17.9769H17.8899V18.6853H18.5938V17.9769Z" fill="black"/>
<path d="M18.5938 18.6837H17.8899V19.3921H18.5938V18.6837Z" fill="black"/>
<path d="M18.5938 19.3921H17.8899V20.1004H18.5938V19.3921Z" fill="black"/>
<path d="M23.5235 6.65567H22.8196V7.36402H23.5235V6.65567Z" fill="black"/>
<path d="M23.5235 7.36249H22.8196V8.07084H23.5235V7.36249Z" fill="black"/>
<path d="M22.8187 8.07083H22.1147V8.77918H22.8187V8.07083Z" fill="black"/>
<path d="M22.8187 8.77762H22.1147V9.48597H22.8187V8.77762Z" fill="black"/>
<path d="M22.8187 9.48599H22.1147V10.1943H22.8187V9.48599Z" fill="black"/>
<path d="M22.1153 9.48599H21.4114V10.1943H22.1153V9.48599Z" fill="black"/>
<path d="M22.1153 10.1928H21.4114V10.9011H22.1153V10.1928Z" fill="black"/>
<path d="M21.4102 10.9011H20.7063V11.6095H21.4102V10.9011Z" fill="black"/>
<path d="M21.4102 11.6079H20.7063V12.3163H21.4102V11.6079Z" fill="black"/>
<path d="M20.7068 12.3163H20.0029V13.0246H20.7068V12.3163Z" fill="black"/>
<path d="M20.7068 13.0231H20.0029V13.7315H20.7068V13.0231Z" fill="black"/>
<path d="M20.002 13.7314H19.2981V14.4398H20.002V13.7314Z" fill="black"/>
<path d="M20.002 14.4382H19.2981V15.1466H20.002V14.4382Z" fill="black"/>
<path d="M19.2986 15.1466H18.5947V15.855H19.2986V15.1466Z" fill="black"/>
<path d="M19.2986 15.8534H18.5947V16.5617H19.2986V15.8534Z" fill="black"/>
<path d="M18.5938 16.5617H17.8899V17.2701H18.5938V16.5617Z" fill="black"/>
<path d="M18.5938 17.2686H17.8899V17.9769H18.5938V17.2686Z" fill="black"/>
<path d="M17.8904 17.9769H17.1865V18.6853H17.8904V17.9769Z" fill="black"/>
<path d="M17.8904 18.6837H17.1865V19.3921H17.8904V18.6837Z" fill="black"/>
<path d="M17.8904 19.3921H17.1865V20.1004H17.8904V19.3921Z" fill="black"/>
<path d="M17.8904 20.0989H17.1865V20.8072H17.8904V20.0989Z" fill="black"/>
<path d="M17.1856 20.0989H16.4817V20.8072H17.1856V20.0989Z" fill="black"/>
<path d="M16.482 20.0989H15.7781V20.8072H16.482V20.0989Z" fill="black"/>
<path d="M15.7772 20.0989H15.0732V20.8072H15.7772V20.0989Z" fill="black"/>
<path d="M15.0738 20.0989H14.3699V20.8072H15.0738V20.0989Z" fill="black"/>
<path d="M14.369 20.0989H13.665V20.8072H14.369V20.0989Z" fill="black"/>
<path d="M13.6656 20.0989H12.9617V20.8072H13.6656V20.0989Z" fill="black"/>
<path d="M12.9607 20.0989H12.2568V20.8072H12.9607V20.0989Z" fill="black"/>
<path d="M12.2574 20.0989H11.5535V20.8072H12.2574V20.0989Z" fill="black"/>
<path d="M11.5523 20.0989H10.8484V20.8072H11.5523V20.0989Z" fill="black"/>
<path d="M10.8489 20.0989H10.145V20.8072H10.8489V20.0989Z" fill="black"/>
<path d="M10.1441 20.0989H9.44019V20.8072H10.1441V20.0989Z" fill="black"/>
<path d="M9.44073 20.0989H8.73682V20.8072H9.44073V20.0989Z" fill="black"/>
<path d="M8.7359 20.0989H8.03198V20.8072H8.7359V20.0989Z" fill="black"/>
<path d="M8.03253 20.0989H7.32861V20.8072H8.03253V20.0989Z" fill="black"/>
<path d="M7.32769 20.0989H6.62378V20.8072H7.32769V20.0989Z" fill="black"/>
<path d="M6.62408 20.0989H5.92017V20.8072H6.62408V20.0989Z" fill="black"/>
<path d="M5.91925 20.0989H5.21533V20.8072H5.91925V20.0989Z" fill="black"/>
<path d="M17.1856 19.3921H16.4817V20.1004H17.1856V19.3921Z" fill="black"/>
<path d="M16.482 19.3921H15.7781V20.1004H16.482V19.3921Z" fill="black"/>
<path d="M15.7772 19.3921H15.0732V20.1004H15.7772V19.3921Z" fill="black"/>
<path d="M15.0738 19.3921H14.3699V20.1004H15.0738V19.3921Z" fill="black"/>
<path d="M14.369 19.3921H13.665V20.1004H14.369V19.3921Z" fill="black"/>
<path d="M13.6656 19.3921H12.9617V20.1004H13.6656V19.3921Z" fill="black"/>
<path d="M12.9607 19.3921H12.2568V20.1004H12.9607V19.3921Z" fill="black"/>
<path d="M12.2574 19.3921H11.5535V20.1004H12.2574V19.3921Z" fill="black"/>
<path d="M11.5523 19.3921H10.8484V20.1004H11.5523V19.3921Z" fill="black"/>
<path d="M10.8489 19.3921H10.145V20.1004H10.8489V19.3921Z" fill="black"/>
<path d="M10.1441 19.3921H9.44019V20.1004H10.1441V19.3921Z" fill="black"/>
<path d="M9.44073 19.3921H8.73682V20.1004H9.44073V19.3921Z" fill="black"/>
<path d="M8.7359 19.3921H8.03198V20.1004H8.7359V19.3921Z" fill="black"/>
<path d="M8.03253 19.3921H7.32861V20.1004H8.03253V19.3921Z" fill="black"/>
<path d="M7.32769 19.3921H6.62378V20.1004H7.32769V19.3921Z" fill="black"/>
<path d="M6.62408 19.3921H5.92017V20.1004H6.62408V19.3921Z" fill="black"/>
<path d="M5.91925 19.3921H5.21533V20.1004H5.91925V19.3921Z" fill="black"/>
<path d="M5.21588 18.6837H4.51196V19.3921H5.21588V18.6837Z" fill="black"/>
<path d="M5.21588 19.3921H4.51196V20.1004H5.21588V19.3921Z" fill="black"/>
<path d="M10.1441 5.94733H9.44019V6.65568H10.1441V5.94733Z" fill="black"/>
<path d="M10.1441 6.65567H9.44019V7.36402H10.1441V6.65567Z" fill="black"/>
<path d="M9.44073 7.36249H8.73682V8.07084H9.44073V7.36249Z" fill="black"/>
<path d="M9.44073 8.07083H8.73682V8.77918H9.44073V8.07083Z" fill="black"/>
<path d="M8.7359 8.77762H8.03198V9.48597H8.7359V8.77762Z" fill="black"/>
<path d="M8.7359 9.48599H8.03198V10.1943H8.7359V9.48599Z" fill="black"/>
<path d="M8.03253 10.1928H7.32861V10.9011H8.03253V10.1928Z" fill="black"/>
<path d="M8.03253 10.9011H7.32861V11.6095H8.03253V10.9011Z" fill="black"/>
<path d="M7.32769 11.6079H6.62378V12.3163H7.32769V11.6079Z" fill="black"/>
<path d="M7.32769 12.3163H6.62378V13.0246H7.32769V12.3163Z" fill="black"/>
<path d="M6.62408 13.0231H5.92017V13.7315H6.62408V13.0231Z" fill="black"/>
<path d="M6.62408 13.7314H5.92017V14.4398H6.62408V13.7314Z" fill="black"/>
<path d="M5.91925 14.4382H5.21533V15.1466H5.91925V14.4382Z" fill="black"/>
<path d="M5.91925 15.1466H5.21533V15.855H5.91925V15.1466Z" fill="black"/>
<path d="M5.21588 15.8534H4.51196V16.5617H5.21588V15.8534Z" fill="black"/>
<path d="M5.21588 16.5617H4.51196V17.2701H5.21588V16.5617Z" fill="black"/>
<path d="M4.51104 17.2686H3.80713V17.9769H4.51104V17.2686Z" fill="black"/>
<path d="M4.51104 17.9769H3.80713V18.6853H4.51104V17.9769Z" fill="black"/>
<path d="M4.51104 18.6837H3.80713V19.3921H4.51104V18.6837Z" fill="black"/>
<path d="M4.51104 19.3921H3.80713V20.1004H4.51104V19.3921Z" fill="black"/>
<path d="M20.002 19.3921H19.2981V20.1004H20.002V19.3921Z" fill="black"/>
<path d="M19.2986 19.3921H18.5947V20.1004H19.2986V19.3921Z" fill="black"/>
<path d="M20.7068 19.3921H20.0029V20.1004H20.7068V19.3921Z" fill="black"/>
<path d="M21.4102 19.3921H20.7063V20.1004H21.4102V19.3921Z" fill="black"/>
<path d="M22.1153 19.3921H21.4114V20.1004H22.1153V19.3921Z" fill="black"/>
<path d="M22.8187 19.3921H22.1147V20.1004H22.8187V19.3921Z" fill="black"/>
<path d="M23.5235 19.3921H22.8196V20.1004H23.5235V19.3921Z" fill="black"/>
<path d="M23.5235 22.2224H22.8196V22.9307H23.5235V22.2224Z" fill="black"/>
<path d="M22.8187 22.2224H22.1147V22.9307H22.8187V22.2224Z" fill="black"/>
<path d="M22.1153 22.2224H21.4114V22.9307H22.1153V22.2224Z" fill="black"/>
<path d="M21.4102 22.2224H20.7063V22.9307H21.4102V22.2224Z" fill="black"/>
<path d="M20.7068 22.2224H20.0029V22.9307H20.7068V22.2224Z" fill="black"/>
<path d="M20.002 22.2224H19.2981V22.9307H20.002V22.2224Z" fill="black"/>
<path d="M19.2986 22.2224H18.5947V22.9307H19.2986V22.2224Z" fill="black"/>
<path d="M18.5938 22.2224H17.8899V22.9307H18.5938V22.2224Z" fill="black"/>
<path d="M17.8904 22.2224H17.1865V22.9307H17.8904V22.2224Z" fill="black"/>
<path d="M17.1856 22.2224H16.4817V22.9307H17.1856V22.2224Z" fill="black"/>
<path d="M16.482 22.2224H15.7781V22.9307H16.482V22.2224Z" fill="black"/>
<path d="M15.7772 22.2224H15.0732V22.9307H15.7772V22.2224Z" fill="black"/>
<path d="M15.0738 22.2224H14.3699V22.9307H15.0738V22.2224Z" fill="black"/>
<path d="M14.369 22.2224H13.665V22.9307H14.369V22.2224Z" fill="black"/>
<path d="M13.6656 22.2224H12.9617V22.9307H13.6656V22.2224Z" fill="black"/>
<path d="M12.9607 22.2224H12.2568V22.9307H12.9607V22.2224Z" fill="black"/>
<path d="M12.2574 22.2224H11.5535V22.9307H12.2574V22.2224Z" fill="black"/>
<path d="M26.3401 17.2686H25.6362V17.9769H26.3401V17.2686Z" fill="black"/>
<path d="M26.3401 17.9769H25.6362V18.6853H26.3401V17.9769Z" fill="black"/>
<path d="M26.3401 18.6837H25.6362V19.3921H26.3401V18.6837Z" fill="black"/>
<path d="M26.3401 19.3921H25.6362V20.1004H26.3401V19.3921Z" fill="black"/>
<path d="M26.3401 20.0989H25.6362V20.8072H26.3401V20.0989Z" fill="black"/>
<path d="M11.5523 20.8072H10.8484V21.5156H11.5523V20.8072Z" fill="black"/>
<path d="M26.3401 20.8072H25.6362V21.5156H26.3401V20.8072Z" fill="black"/>
<path d="M11.5523 21.514H10.8484V22.2224H11.5523V21.514Z" fill="black"/>
<path d="M26.3401 21.514H25.6362V22.2224H26.3401V21.514Z" fill="black"/>
<path d="M11.5523 22.2224H10.8484V22.9307H11.5523V22.2224Z" fill="black"/>
<path d="M26.3401 22.2224H25.6362V22.9307H26.3401V22.2224Z" fill="black"/>
<path d="M11.5523 22.9292H10.8484V23.6375H11.5523V22.9292Z" fill="black"/>
<path d="M10.8489 20.8072H10.145V21.5156H10.8489V20.8072Z" fill="black"/>
<path d="M10.8489 21.514H10.145V22.2224H10.8489V21.514Z" fill="black"/>
<path d="M10.8489 22.2224H10.145V22.9307H10.8489V22.2224Z" fill="black"/>
<path d="M10.8489 22.9292H10.145V23.6375H10.8489V22.9292Z" fill="black"/>
<path d="M26.3401 22.9292H25.6362V23.6375H26.3401V22.9292Z" fill="black"/>
<path d="M26.3401 23.6375H25.6362V24.3459H26.3401V23.6375Z" fill="black"/>
<path d="M27.0433 6.65567H26.3394V7.36402H27.0433V6.65567Z" fill="black"/>
<path d="M27.0433 7.36249H26.3394V8.07084H27.0433V7.36249Z" fill="black"/>
<path d="M27.0433 8.07083H26.3394V8.77918H27.0433V8.07083Z" fill="black"/>
<path d="M27.0433 8.77762H26.3394V9.48597H27.0433V8.77762Z" fill="black"/>
<path d="M27.0433 9.48599H26.3394V10.1943H27.0433V9.48599Z" fill="black"/>
<path d="M27.0433 10.1928H26.3394V10.9011H27.0433V10.1928Z" fill="black"/>
<path d="M27.0433 10.9011H26.3394V11.6095H27.0433V10.9011Z" fill="black"/>
<path d="M27.0433 11.6079H26.3394V12.3163H27.0433V11.6079Z" fill="black"/>
<path d="M27.0433 12.3163H26.3394V13.0246H27.0433V12.3163Z" fill="black"/>
<path d="M27.0433 13.0231H26.3394V13.7315H27.0433V13.0231Z" fill="black"/>
<path d="M27.0433 13.7314H26.3394V14.4398H27.0433V13.7314Z" fill="black"/>
<path d="M27.0433 14.4382H26.3394V15.1466H27.0433V14.4382Z" fill="black"/>
<path d="M27.0433 15.1466H26.3394V15.855H27.0433V15.1466Z" fill="black"/>
<path d="M27.0433 15.8534H26.3394V16.5617H27.0433V15.8534Z" fill="black"/>
<path d="M27.0433 16.5617H26.3394V17.2701H27.0433V16.5617Z" fill="black"/>
<path d="M27.0433 17.2686H26.3394V17.9769H27.0433V17.2686Z" fill="black"/>
<path d="M27.0433 17.9769H26.3394V18.6853H27.0433V17.9769Z" fill="black"/>
<path d="M27.0433 18.6837H26.3394V19.3921H27.0433V18.6837Z" fill="black"/>
<path d="M27.0433 19.3921H26.3394V20.1004H27.0433V19.3921Z" fill="black"/>
<path d="M27.0433 20.0989H26.3394V20.8072H27.0433V20.0989Z" fill="black"/>
<path d="M27.0433 20.8072H26.3394V21.5156H27.0433V20.8072Z" fill="black"/>
<path d="M27.0433 21.514H26.3394V22.2224H27.0433V21.514Z" fill="black"/>
<path d="M27.0433 22.2224H26.3394V22.9307H27.0433V22.2224Z" fill="black"/>
<path d="M27.0433 22.9292H26.3394V23.6375H27.0433V22.9292Z" fill="black"/>
<path d="M27.0433 23.6375H26.3394V24.3459H27.0433V23.6375Z" fill="black"/>
<path d="M12.9607 24.3443H12.2568V25.0527H12.9607V24.3443Z" fill="black"/>
<path d="M11.5523 23.6375H10.8484V24.3459H11.5523V23.6375Z" fill="black"/>
<path d="M10.8489 23.6375H10.145V24.3459H10.8489V23.6375Z" fill="black"/>
<path d="M12.2574 24.3443H11.5535V25.0527H12.2574V24.3443Z" fill="black"/>
<path d="M12.9607 25.0527H12.2568V25.761H12.9607V25.0527Z" fill="black"/>
<path d="M12.2574 25.0527H11.5535V25.761H12.2574V25.0527Z" fill="black"/>
<path d="M25.6351 24.3443H24.9312V25.0527H25.6351V24.3443Z" fill="black"/>
<path d="M25.6351 25.0527H24.9312V25.761H25.6351V25.0527Z" fill="black"/>
<path d="M26.3401 24.3443H25.6362V25.0527H26.3401V24.3443Z" fill="black"/>
<path d="M26.3401 25.0527H25.6362V25.761H26.3401V25.0527Z" fill="black"/>
<path d="M13.6656 25.0527H12.9617V25.761H13.6656V25.0527Z" fill="black"/>
<path d="M14.369 25.0527H13.665V25.761H14.369V25.0527Z" fill="black"/>
<path d="M15.0738 25.0527H14.3699V25.761H15.0738V25.0527Z" fill="black"/>
<path d="M15.7772 25.0527H15.0732V25.761H15.7772V25.0527Z" fill="black"/>
<path d="M16.482 25.0527H15.7781V25.761H16.482V25.0527Z" fill="black"/>
<path d="M17.1856 25.0527H16.4817V25.761H17.1856V25.0527Z" fill="black"/>
<path d="M17.8904 25.0527H17.1865V25.761H17.8904V25.0527Z" fill="black"/>
<path d="M18.5938 25.0527H17.8899V25.761H18.5938V25.0527Z" fill="black"/>
<path d="M19.2986 25.0527H18.5947V25.761H19.2986V25.0527Z" fill="black"/>
<path d="M20.002 25.0527H19.2981V25.761H20.002V25.0527Z" fill="black"/>
<path d="M20.7068 25.0527H20.0029V25.761H20.7068V25.0527Z" fill="black"/>
<path d="M21.4102 25.0527H20.7063V25.761H21.4102V25.0527Z" fill="black"/>
<path d="M22.1153 25.0527H21.4114V25.761H22.1153V25.0527Z" fill="black"/>
<path d="M22.8187 25.0527H22.1147V25.761H22.8187V25.0527Z" fill="black"/>
<path d="M23.5235 25.0527H22.8196V25.761H23.5235V25.0527Z" fill="black"/>
<path d="M24.2269 25.0527H23.5229V25.761H24.2269V25.0527Z" fill="black"/>
<path d="M24.9319 25.0527H24.228V25.761H24.9319V25.0527Z" fill="black"/>
<path d="M13.6656 25.7595H12.9617V26.4678H13.6656V25.7595Z" fill="black"/>
<path d="M14.369 25.7595H13.665V26.4678H14.369V25.7595Z" fill="black"/>
<path d="M15.0738 25.7595H14.3699V26.4678H15.0738V25.7595Z" fill="black"/>
<path d="M15.7772 25.7595H15.0732V26.4678H15.7772V25.7595Z" fill="black"/>
<path d="M16.482 25.7595H15.7781V26.4678H16.482V25.7595Z" fill="black"/>
<path d="M17.1856 25.7595H16.4817V26.4678H17.1856V25.7595Z" fill="black"/>
<path d="M17.8904 25.7595H17.1865V26.4678H17.8904V25.7595Z" fill="black"/>
<path d="M18.5938 25.7595H17.8899V26.4678H18.5938V25.7595Z" fill="black"/>
<path d="M19.2986 25.7595H18.5947V26.4678H19.2986V25.7595Z" fill="black"/>
<path d="M20.002 25.7595H19.2981V26.4678H20.002V25.7595Z" fill="black"/>
<path d="M20.7068 25.7595H20.0029V26.4678H20.7068V25.7595Z" fill="black"/>
<path d="M21.4102 25.7595H20.7063V26.4678H21.4102V25.7595Z" fill="black"/>
<path d="M22.1153 25.7595H21.4114V26.4678H22.1153V25.7595Z" fill="black"/>
<path d="M22.8187 25.7595H22.1147V26.4678H22.8187V25.7595Z" fill="black"/>
<path d="M23.5235 25.7595H22.8196V26.4678H23.5235V25.7595Z" fill="black"/>
<path d="M24.2269 25.7595H23.5229V26.4678H24.2269V25.7595Z" fill="black"/>
<path d="M24.9319 25.7595H24.228V26.4678H24.9319V25.7595Z" fill="black"/>
</svg>
