<svg width="100" height="50" viewBox="0 0 100 50" fill="none" xmlns="http://www.w3.org/2000/svg">
<path d="M60 33.6217V31.3938H62.2203V33.6217H60Z" fill="black"></path>
<path d="M66.1197 33.6218V20.236H61.6731V18H72.7865V20.236H68.3399V33.6238H66.1197V33.6218Z" fill="black"></path>
<path d="M74.616 33.6217V30.2808H75.7251V29.1598H76.8342V28.0469H77.9433V26.9339H79.0605V24.6979H77.9433V23.5849H76.8342V22.472H75.7251V21.3509H74.616V18.002H76.8362V20.238H77.9454V21.3509H79.0625V22.472H80.1717V23.5849H81.2808V22.472H82.398V21.3509H83.5071V20.238H84.6162V18.002H86.8445V21.3509H85.7274V22.472H84.6182V23.5849H83.5091V24.6979H82.4V26.9339H83.5091V28.0469H84.6182V29.1598H85.7274V30.2808H86.8445V33.6217H84.6162V31.3938H83.5071V30.2808H82.398V29.1598H81.2808V28.0469H80.1717V29.1598H79.0625V30.2808H77.9454V31.3938H76.8362V33.6217H74.616Z" fill="black"></path>
<path d="M93.1309 33.6218V20.236H88.6843V18H99.7977V20.236H95.3512V33.6238H93.1309V33.6218Z" fill="black"></path>
<rect width="50" height="50" fill="black"></rect>
<path d="M19.3538 10.4651H18.4197V11.4038H19.3538V10.4651Z" fill="white"></path>
<path d="M20.2872 10.4651H19.353V11.4038H20.2872V10.4651Z" fill="white"></path>
<path d="M22.1561 10.4651H21.2219V11.4038H22.1561V10.4651Z" fill="white"></path>
<path d="M23.0916 10.4651H22.1575V11.4038H23.0916V10.4651Z" fill="white"></path>
<path d="M24.961 10.4651H24.0269V11.4038H24.961V10.4651Z" fill="white"></path>
<path d="M25.8946 10.4651H24.9604V11.4038H25.8946V10.4651Z" fill="white"></path>
<path d="M27.7635 10.4651H26.8293V11.4038H27.7635V10.4651Z" fill="white"></path>
<path d="M28.6991 10.4651H27.7649V11.4038H28.6991V10.4651Z" fill="white"></path>
<path d="M30.568 10.4651H29.6338V11.4038H30.568V10.4651Z" fill="white"></path>
<path d="M31.5013 10.4651H30.5671V11.4038H31.5013V10.4651Z" fill="white"></path>
<path d="M33.3704 10.4651H32.4363V11.4038H33.3704V10.4651Z" fill="white"></path>
<path d="M34.3058 10.4651H33.3716V11.4038H34.3058V10.4651Z" fill="white"></path>
<path d="M18.4185 11.4038H17.4844V12.3425H18.4185V11.4038Z" fill="white"></path>
<path d="M20.2872 11.4038H19.353V12.3425H20.2872V11.4038Z" fill="white"></path>
<path d="M21.2227 11.4038H20.2886V12.3425H21.2227V11.4038Z" fill="white"></path>
<path d="M23.0916 11.4038H22.1575V12.3425H23.0916V11.4038Z" fill="white"></path>
<path d="M24.0252 11.4038H23.0911V12.3425H24.0252V11.4038Z" fill="white"></path>
<path d="M25.8946 11.4038H24.9604V12.3425H25.8946V11.4038Z" fill="white"></path>
<path d="M26.8302 11.4038H25.896V12.3425H26.8302V11.4038Z" fill="white"></path>
<path d="M28.6991 11.4038H27.7649V12.3425H28.6991V11.4038Z" fill="white"></path>
<path d="M29.6324 11.4038H28.6982V12.3425H29.6324V11.4038Z" fill="white"></path>
<path d="M31.5013 11.4038H30.5671V12.3425H31.5013V11.4038Z" fill="white"></path>
<path d="M32.4369 11.4038H31.5027V12.3425H32.4369V11.4038Z" fill="white"></path>
<path d="M34.3058 11.4038H33.3716V12.3425H34.3058V11.4038Z" fill="white"></path>
<path d="M35.2391 11.4038H34.3049V12.3425H35.2391V11.4038Z" fill="white"></path>
<path d="M36.1747 11.4038H35.2405V12.3425H36.1747V11.4038Z" fill="white"></path>
<path d="M17.485 12.3403H16.5508V13.2791H17.485V12.3403Z" fill="white"></path>
<path d="M19.3538 12.3403H18.4197V13.2791H19.3538V12.3403Z" fill="white"></path>
<path d="M22.1561 12.3403H21.2219V13.2791H22.1561V12.3403Z" fill="white"></path>
<path d="M24.961 12.3403H24.0269V13.2791H24.961V12.3403Z" fill="white"></path>
<path d="M27.7635 12.3403H26.8293V13.2791H27.7635V12.3403Z" fill="white"></path>
<path d="M29.6324 12.3403H28.6982V13.2791H29.6324V12.3403Z" fill="white"></path>
<path d="M30.568 12.3403H29.6338V13.2791H30.568V12.3403Z" fill="white"></path>
<path d="M31.5013 12.3403H30.5671V13.2791H31.5013V12.3403Z" fill="white"></path>
<path d="M33.3704 12.3403H32.4363V13.2791H33.3704V12.3403Z" fill="white"></path>
<path d="M36.1747 12.3403H35.2405V13.2791H36.1747V12.3403Z" fill="white"></path>
<path d="M37.108 12.3403H36.1738V13.2791H37.108V12.3403Z" fill="white"></path>
<path d="M17.485 13.2793H16.5508V14.218H17.485V13.2793Z" fill="white"></path>
<path d="M35.2391 13.2793H34.3049V14.218H35.2391V13.2793Z" fill="white"></path>
<path d="M38.0435 13.2793H37.1094V14.218H38.0435V13.2793Z" fill="white"></path>
<path d="M16.5494 14.2158H15.6152V15.1545H16.5494V14.2158Z" fill="white"></path>
<path d="M35.2391 14.2158H34.3049V15.1545H35.2391V14.2158Z" fill="white"></path>
<path d="M38.0435 14.2158H37.1094V15.1545H38.0435V14.2158Z" fill="white"></path>
<path d="M16.5494 15.1545H15.6152V16.0933H16.5494V15.1545Z" fill="white"></path>
<path d="M34.3058 15.1545H33.3716V16.0933H34.3058V15.1545Z" fill="white"></path>
<path d="M38.0435 15.1545H37.1094V16.0933H38.0435V15.1545Z" fill="white"></path>
<path d="M15.6161 16.0913H14.6819V17.03H15.6161V16.0913Z" fill="white"></path>
<path d="M34.3058 16.0913H33.3716V17.03H34.3058V16.0913Z" fill="white"></path>
<path d="M34.3058 17.03H33.3716V17.9688H34.3058V17.03Z" fill="white"></path>
<path d="M38.0435 16.0913H37.1094V17.03H38.0435V16.0913Z" fill="white"></path>
<path d="M15.6161 17.03H14.6819V17.9688H15.6161V17.03Z" fill="white"></path>
<path d="M33.3704 17.03H32.4363V17.9688H33.3704V17.03Z" fill="white"></path>
<path d="M38.0435 17.03H37.1094V17.9688H38.0435V17.03Z" fill="white"></path>
<path d="M14.6805 17.9668H13.7463V18.9055H14.6805V17.9668Z" fill="white"></path>
<path d="M33.3704 17.9668H32.4363V18.9055H33.3704V17.9668Z" fill="white"></path>
<path d="M38.0435 17.9668H37.1094V18.9055H38.0435V17.9668Z" fill="white"></path>
<path d="M14.6805 18.9055H13.7463V19.8442H14.6805V18.9055Z" fill="white"></path>
<path d="M32.4369 18.9055H31.5027V19.8442H32.4369V18.9055Z" fill="white"></path>
<path d="M32.4369 19.842H31.5027V20.7808H32.4369V19.842Z" fill="white"></path>
<path d="M38.0435 18.9055H37.1094V19.8442H38.0435V18.9055Z" fill="white"></path>
<path d="M13.7472 19.842H12.813V20.7808H13.7472V19.842Z" fill="white"></path>
<path d="M32.4369 22.6562H31.5027V23.595H32.4369V22.6562Z" fill="white"></path>
<path d="M31.5013 22.6562H30.5671V23.595H31.5013V22.6562Z" fill="white"></path>
<path d="M33.3704 22.6562H32.4363V23.595H33.3704V22.6562Z" fill="white"></path>
<path d="M34.3058 22.6562H33.3716V23.595H34.3058V22.6562Z" fill="white"></path>
<path d="M34.3058 18.9055H33.3716V19.8442H34.3058V18.9055Z" fill="white"></path>
<path d="M33.3704 18.9055H32.4363V19.8442H33.3704V18.9055Z" fill="white"></path>
<path d="M38.0435 19.842H37.1094V20.7808H38.0435V19.842Z" fill="white"></path>
<path d="M13.7472 20.7808H12.813V21.7195H13.7472V20.7808Z" fill="white"></path>
<path d="M31.5013 20.7808H30.5671V21.7195H31.5013V20.7808Z" fill="white"></path>
<path d="M38.0435 20.7808H37.1094V21.7195H38.0435V20.7808Z" fill="white"></path>
<path d="M12.8116 21.7175H11.8774V22.6563H12.8116V21.7175Z" fill="white"></path>
<path d="M31.5013 21.7175H30.5671V22.6563H31.5013V21.7175Z" fill="white"></path>
<path d="M38.0435 21.7175H37.1094V22.6563H38.0435V21.7175Z" fill="white"></path>
<path d="M12.8116 22.6562H11.8774V23.595H12.8116V22.6562Z" fill="white"></path>
<path d="M30.568 22.6562H29.6338V23.595H30.568V22.6562Z" fill="white"></path>
<path d="M38.0435 22.6562H37.1094V23.595H38.0435V22.6562Z" fill="white"></path>
<path d="M11.8783 23.593H10.9441V24.5317H11.8783V23.593Z" fill="white"></path>
<path d="M30.568 23.593H29.6338V24.5317H30.568V23.593Z" fill="white"></path>
<path d="M30.568 26.407H29.6338V27.3457H30.568V26.407Z" fill="white"></path>
<path d="M29.6324 26.407H28.6982V27.3457H29.6324V26.407Z" fill="white"></path>
<path d="M31.5013 26.407H30.5671V27.3457H31.5013V26.407Z" fill="white"></path>
<path d="M32.4369 26.407H31.5027V27.3457H32.4369V26.407Z" fill="white"></path>
<path d="M33.3704 26.407H32.4363V27.3457H33.3704V26.407Z" fill="white"></path>
<path d="M34.3058 26.407H33.3716V27.3457H34.3058V26.407Z" fill="white"></path>
<path d="M38.0435 23.593H37.1094V24.5317H38.0435V23.593Z" fill="white"></path>
<path d="M11.8783 24.5315H10.9441V25.4702H11.8783V24.5315Z" fill="white"></path>
<path d="M29.6324 24.5315H28.6982V25.4702H29.6324V24.5315Z" fill="white"></path>
<path d="M24.9603 18.9055H24.0261V19.8442H24.9603V18.9055Z" fill="white"></path>
<path d="M24.025 18.9055H23.0908V19.8442H24.025V18.9055Z" fill="white"></path>
<path d="M23.0914 18.9055H22.1572V19.8442H23.0914V18.9055Z" fill="white"></path>
<path d="M22.1559 18.9055H21.2217V19.8442H22.1559V18.9055Z" fill="white"></path>
<path d="M21.2225 18.9055H20.2883V19.8442H21.2225V18.9055Z" fill="white"></path>
<path d="M20.2872 18.9055H19.353V19.8442H20.2872V18.9055Z" fill="white"></path>
<path d="M19.3536 18.9055H18.4194V19.8442H19.3536V18.9055Z" fill="white"></path>
<path d="M18.4183 18.9055H17.4841V19.8442H18.4183V18.9055Z" fill="white"></path>
<path d="M25.8939 18.9055H24.9597V19.8442H25.8939V18.9055Z" fill="white"></path>
<path d="M26.8292 18.9055H25.895V19.8442H26.8292V18.9055Z" fill="white"></path>
<path d="M24.9603 22.6562H24.0261V23.595H24.9603V22.6562Z" fill="white"></path>
<path d="M24.025 22.6562H23.0908V23.595H24.025V22.6562Z" fill="white"></path>
<path d="M23.0914 22.6562H22.1572V23.595H23.0914V22.6562Z" fill="white"></path>
<path d="M22.1559 22.6562H21.2217V23.595H22.1559V22.6562Z" fill="white"></path>
<path d="M21.2225 22.6562H20.2883V23.595H21.2225V22.6562Z" fill="white"></path>
<path d="M20.2872 22.6562H19.353V23.595H20.2872V22.6562Z" fill="white"></path>
<path d="M19.3536 22.6562H18.4194V23.595H19.3536V22.6562Z" fill="white"></path>
<path d="M18.4183 22.6562H17.4841V23.595H18.4183V22.6562Z" fill="white"></path>
<path d="M17.4847 22.6562H16.5505V23.595H17.4847V22.6562Z" fill="white"></path>
<path d="M16.5492 22.6562H15.615V23.595H16.5492V22.6562Z" fill="white"></path>
<path d="M25.8939 22.6562H24.9597V23.595H25.8939V22.6562Z" fill="white"></path>
<path d="M38.0435 24.5315H37.1094V25.4702H38.0435V24.5315Z" fill="white"></path>
<path d="M10.9427 25.4683H10.0085V26.407H10.9427V25.4683Z" fill="white"></path>
<path d="M29.6324 25.4683H28.6982V26.407H29.6324V25.4683Z" fill="white"></path>
<path d="M38.0435 25.4683H37.1094V26.407H38.0435V25.4683Z" fill="white"></path>
<path d="M10.9427 26.407H10.0085V27.3457H10.9427V26.407Z" fill="white"></path>
<path d="M10.0091 27.3438H9.07495V28.2825H10.0091V27.3438Z" fill="white"></path>
<path d="M10.0091 28.2825H9.07495V29.2212H10.0091V28.2825Z" fill="white"></path>
<path d="M28.6991 26.407H27.7649V27.3457H28.6991V26.407Z" fill="white"></path>
<path d="M38.0435 26.407H37.1094V27.3457H38.0435V26.407Z" fill="white"></path>
<path d="M28.6991 27.3438H27.7649V28.2825H28.6991V27.3438Z" fill="white"></path>
<path d="M27.7635 28.2825H26.8293V29.2212H27.7635V28.2825Z" fill="white"></path>
<path d="M27.7635 29.219H26.8293V30.1577H27.7635V29.219Z" fill="white"></path>
<path d="M27.7635 30.158H26.8293V31.0967H27.7635V30.158Z" fill="white"></path>
<path d="M34.3058 13.2793H33.3716V14.218H34.3058V13.2793Z" fill="white"></path>
<path d="M34.3058 14.2158H33.3716V15.1545H34.3058V14.2158Z" fill="white"></path>
<path d="M33.3704 15.1545H32.4363V16.0933H33.3704V15.1545Z" fill="white"></path>
<path d="M33.3704 16.0913H32.4363V17.03H33.3704V16.0913Z" fill="white"></path>
<path d="M33.3704 17.03H32.4363V17.9688H33.3704V17.03Z" fill="white"></path>
<path d="M32.4369 17.03H31.5027V17.9688H32.4369V17.03Z" fill="white"></path>
<path d="M32.4369 17.9668H31.5027V18.9055H32.4369V17.9668Z" fill="white"></path>
<path d="M31.5013 18.9055H30.5671V19.8442H31.5013V18.9055Z" fill="white"></path>
<path d="M31.5013 19.842H30.5671V20.7808H31.5013V19.842Z" fill="white"></path>
<path d="M30.568 20.7808H29.6338V21.7195H30.568V20.7808Z" fill="white"></path>
<path d="M30.568 21.7175H29.6338V22.6563H30.568V21.7175Z" fill="white"></path>
<path d="M29.6324 22.6562H28.6982V23.595H29.6324V22.6562Z" fill="white"></path>
<path d="M29.6324 23.593H28.6982V24.5317H29.6324V23.593Z" fill="white"></path>
<path d="M28.6991 24.5315H27.7649V25.4702H28.6991V24.5315Z" fill="white"></path>
<path d="M28.6991 25.4683H27.7649V26.407H28.6991V25.4683Z" fill="white"></path>
<path d="M27.7635 26.407H26.8293V27.3457H27.7635V26.407Z" fill="white"></path>
<path d="M27.7635 27.3438H26.8293V28.2825H27.7635V27.3438Z" fill="white"></path>
<path d="M26.8302 28.2825H25.896V29.2212H26.8302V28.2825Z" fill="white"></path>
<path d="M26.8302 29.219H25.896V30.1577H26.8302V29.219Z" fill="white"></path>
<path d="M26.8302 30.158H25.896V31.0967H26.8302V30.158Z" fill="white"></path>
<path d="M26.8302 31.0945H25.896V32.0332H26.8302V31.0945Z" fill="white"></path>
<path d="M25.8946 31.0945H24.9604V32.0332H25.8946V31.0945Z" fill="white"></path>
<path d="M24.961 31.0945H24.0269V32.0332H24.961V31.0945Z" fill="white"></path>
<path d="M24.0252 31.0945H23.0911V32.0332H24.0252V31.0945Z" fill="white"></path>
<path d="M23.0916 31.0945H22.1575V32.0332H23.0916V31.0945Z" fill="white"></path>
<path d="M22.1561 31.0945H21.2219V32.0332H22.1561V31.0945Z" fill="white"></path>
<path d="M21.2227 31.0945H20.2886V32.0332H21.2227V31.0945Z" fill="white"></path>
<path d="M20.2872 31.0945H19.353V32.0332H20.2872V31.0945Z" fill="white"></path>
<path d="M19.3538 31.0945H18.4197V32.0332H19.3538V31.0945Z" fill="white"></path>
<path d="M18.4185 31.0945H17.4844V32.0332H18.4185V31.0945Z" fill="white"></path>
<path d="M17.485 31.0945H16.5508V32.0332H17.485V31.0945Z" fill="white"></path>
<path d="M16.5494 31.0945H15.6152V32.0332H16.5494V31.0945Z" fill="white"></path>
<path d="M15.6161 31.0945H14.6819V32.0332H15.6161V31.0945Z" fill="white"></path>
<path d="M14.6805 31.0945H13.7463V32.0332H14.6805V31.0945Z" fill="white"></path>
<path d="M13.7472 31.0945H12.813V32.0332H13.7472V31.0945Z" fill="white"></path>
<path d="M12.8116 31.0945H11.8774V32.0332H12.8116V31.0945Z" fill="white"></path>
<path d="M11.8783 31.0945H10.9441V32.0332H11.8783V31.0945Z" fill="white"></path>
<path d="M10.9427 31.0945H10.0085V32.0332H10.9427V31.0945Z" fill="white"></path>
<path d="M25.8946 30.158H24.9604V31.0967H25.8946V30.158Z" fill="white"></path>
<path d="M24.961 30.158H24.0269V31.0967H24.961V30.158Z" fill="white"></path>
<path d="M24.0252 30.158H23.0911V31.0967H24.0252V30.158Z" fill="white"></path>
<path d="M23.0916 30.158H22.1575V31.0967H23.0916V30.158Z" fill="white"></path>
<path d="M22.1561 30.158H21.2219V31.0967H22.1561V30.158Z" fill="white"></path>
<path d="M21.2227 30.158H20.2886V31.0967H21.2227V30.158Z" fill="white"></path>
<path d="M20.2872 30.158H19.353V31.0967H20.2872V30.158Z" fill="white"></path>
<path d="M19.3538 30.158H18.4197V31.0967H19.3538V30.158Z" fill="white"></path>
<path d="M18.4185 30.158H17.4844V31.0967H18.4185V30.158Z" fill="white"></path>
<path d="M17.485 30.158H16.5508V31.0967H17.485V30.158Z" fill="white"></path>
<path d="M16.5494 30.158H15.6152V31.0967H16.5494V30.158Z" fill="white"></path>
<path d="M15.6161 30.158H14.6819V31.0967H15.6161V30.158Z" fill="white"></path>
<path d="M14.6805 30.158H13.7463V31.0967H14.6805V30.158Z" fill="white"></path>
<path d="M13.7472 30.158H12.813V31.0967H13.7472V30.158Z" fill="white"></path>
<path d="M12.8116 30.158H11.8774V31.0967H12.8116V30.158Z" fill="white"></path>
<path d="M11.8783 30.158H10.9441V31.0967H11.8783V30.158Z" fill="white"></path>
<path d="M10.9427 30.158H10.0085V31.0967H10.9427V30.158Z" fill="white"></path>
<path d="M10.0091 29.219H9.07495V30.1577H10.0091V29.219Z" fill="white"></path>
<path d="M10.0091 30.158H9.07495V31.0967H10.0091V30.158Z" fill="white"></path>
<path d="M16.5494 12.3403H15.6152V13.2791H16.5494V12.3403Z" fill="white"></path>
<path d="M16.5494 13.2793H15.6152V14.218H16.5494V13.2793Z" fill="white"></path>
<path d="M15.6161 14.2158H14.6819V15.1545H15.6161V14.2158Z" fill="white"></path>
<path d="M15.6161 15.1545H14.6819V16.0933H15.6161V15.1545Z" fill="white"></path>
<path d="M14.6805 16.0913H13.7463V17.03H14.6805V16.0913Z" fill="white"></path>
<path d="M14.6805 17.03H13.7463V17.9688H14.6805V17.03Z" fill="white"></path>
<path d="M13.7472 17.9668H12.813V18.9055H13.7472V17.9668Z" fill="white"></path>
<path d="M13.7472 18.9055H12.813V19.8442H13.7472V18.9055Z" fill="white"></path>
<path d="M12.8116 19.842H11.8774V20.7808H12.8116V19.842Z" fill="white"></path>
<path d="M12.8116 20.7808H11.8774V21.7195H12.8116V20.7808Z" fill="white"></path>
<path d="M11.8783 21.7175H10.9441V22.6563H11.8783V21.7175Z" fill="white"></path>
<path d="M11.8783 22.6562H10.9441V23.595H11.8783V22.6562Z" fill="white"></path>
<path d="M10.9427 23.593H10.0085V24.5317H10.9427V23.593Z" fill="white"></path>
<path d="M10.9427 24.5315H10.0085V25.4702H10.9427V24.5315Z" fill="white"></path>
<path d="M10.0091 25.4683H9.07495V26.407H10.0091V25.4683Z" fill="white"></path>
<path d="M10.0091 26.407H9.07495V27.3457H10.0091V26.407Z" fill="white"></path>
<path d="M9.07382 27.3438H8.13965V28.2825H9.07382V27.3438Z" fill="white"></path>
<path d="M9.07382 28.2825H8.13965V29.2212H9.07382V28.2825Z" fill="white"></path>
<path d="M9.07382 29.219H8.13965V30.1577H9.07382V29.219Z" fill="white"></path>
<path d="M9.07382 30.158H8.13965V31.0967H9.07382V30.158Z" fill="white"></path>
<path d="M29.6324 30.158H28.6982V31.0967H29.6324V30.158Z" fill="white"></path>
<path d="M28.6991 30.158H27.7649V31.0967H28.6991V30.158Z" fill="white"></path>
<path d="M30.568 30.158H29.6338V31.0967H30.568V30.158Z" fill="white"></path>
<path d="M31.5013 30.158H30.5671V31.0967H31.5013V30.158Z" fill="white"></path>
<path d="M32.4369 30.158H31.5027V31.0967H32.4369V30.158Z" fill="white"></path>
<path d="M33.3704 30.158H32.4363V31.0967H33.3704V30.158Z" fill="white"></path>
<path d="M34.3058 30.158H33.3716V31.0967H34.3058V30.158Z" fill="white"></path>
<path d="M34.3058 33.9084H33.3716V34.8472H34.3058V33.9084Z" fill="white"></path>
<path d="M33.3704 33.9084H32.4363V34.8472H33.3704V33.9084Z" fill="white"></path>
<path d="M32.4369 33.9084H31.5027V34.8472H32.4369V33.9084Z" fill="white"></path>
<path d="M31.5013 33.9084H30.5671V34.8472H31.5013V33.9084Z" fill="white"></path>
<path d="M30.568 33.9084H29.6338V34.8472H30.568V33.9084Z" fill="white"></path>
<path d="M29.6324 33.9084H28.6982V34.8472H29.6324V33.9084Z" fill="white"></path>
<path d="M28.6991 33.9084H27.7649V34.8472H28.6991V33.9084Z" fill="white"></path>
<path d="M27.7635 33.9084H26.8293V34.8472H27.7635V33.9084Z" fill="white"></path>
<path d="M26.8302 33.9084H25.896V34.8472H26.8302V33.9084Z" fill="white"></path>
<path d="M25.8946 33.9084H24.9604V34.8472H25.8946V33.9084Z" fill="white"></path>
<path d="M24.961 33.9084H24.0269V34.8472H24.961V33.9084Z" fill="white"></path>
<path d="M24.0252 33.9084H23.0911V34.8472H24.0252V33.9084Z" fill="white"></path>
<path d="M23.0916 33.9084H22.1575V34.8472H23.0916V33.9084Z" fill="white"></path>
<path d="M22.1561 33.9084H21.2219V34.8472H22.1561V33.9084Z" fill="white"></path>
<path d="M21.2227 33.9084H20.2886V34.8472H21.2227V33.9084Z" fill="white"></path>
<path d="M20.2872 33.9084H19.353V34.8472H20.2872V33.9084Z" fill="white"></path>
<path d="M19.3538 33.9084H18.4197V34.8472H19.3538V33.9084Z" fill="white"></path>
<path d="M38.0435 27.3438H37.1094V28.2825H38.0435V27.3438Z" fill="white"></path>
<path d="M38.0435 28.2825H37.1094V29.2212H38.0435V28.2825Z" fill="white"></path>
<path d="M38.0435 29.219H37.1094V30.1577H38.0435V29.219Z" fill="white"></path>
<path d="M38.0435 30.158H37.1094V31.0967H38.0435V30.158Z" fill="white"></path>
<path d="M38.0435 31.0945H37.1094V32.0332H38.0435V31.0945Z" fill="white"></path>
<path d="M18.4185 32.0332H17.4844V32.9719H18.4185V32.0332Z" fill="white"></path>
<path d="M38.0435 32.0332H37.1094V32.9719H38.0435V32.0332Z" fill="white"></path>
<path d="M18.4185 32.97H17.4844V33.9087H18.4185V32.97Z" fill="white"></path>
<path d="M38.0435 32.97H37.1094V33.9087H38.0435V32.97Z" fill="white"></path>
<path d="M18.4185 33.9084H17.4844V34.8472H18.4185V33.9084Z" fill="white"></path>
<path d="M38.0435 33.9084H37.1094V34.8472H38.0435V33.9084Z" fill="white"></path>
<path d="M18.4185 34.8455H17.4844V35.7842H18.4185V34.8455Z" fill="white"></path>
<path d="M17.485 32.0332H16.5508V32.9719H17.485V32.0332Z" fill="white"></path>
<path d="M17.485 32.97H16.5508V33.9087H17.485V32.97Z" fill="white"></path>
<path d="M17.485 33.9084H16.5508V34.8472H17.485V33.9084Z" fill="white"></path>
<path d="M17.485 34.8455H16.5508V35.7842H17.485V34.8455Z" fill="white"></path>
<path d="M38.0435 34.8455H37.1094V35.7842H38.0435V34.8455Z" fill="white"></path>
<path d="M38.0435 35.7842H37.1094V36.7229H38.0435V35.7842Z" fill="white"></path>
<path d="M38.9771 13.2793H38.043V14.218H38.9771V13.2793Z" fill="white"></path>
<path d="M38.9771 14.2158H38.043V15.1545H38.9771V14.2158Z" fill="white"></path>
<path d="M38.9771 15.1545H38.043V16.0933H38.9771V15.1545Z" fill="white"></path>
<path d="M38.9771 16.0913H38.043V17.03H38.9771V16.0913Z" fill="white"></path>
<path d="M38.9771 17.03H38.043V17.9688H38.9771V17.03Z" fill="white"></path>
<path d="M38.9771 17.9668H38.043V18.9055H38.9771V17.9668Z" fill="white"></path>
<path d="M38.9771 18.9055H38.043V19.8442H38.9771V18.9055Z" fill="white"></path>
<path d="M38.9771 19.842H38.043V20.7808H38.9771V19.842Z" fill="white"></path>
<path d="M38.9771 20.7808H38.043V21.7195H38.9771V20.7808Z" fill="white"></path>
<path d="M38.9771 21.7175H38.043V22.6563H38.9771V21.7175Z" fill="white"></path>
<path d="M38.9771 22.6562H38.043V23.595H38.9771V22.6562Z" fill="white"></path>
<path d="M38.9771 23.593H38.043V24.5317H38.9771V23.593Z" fill="white"></path>
<path d="M38.9771 24.5315H38.043V25.4702H38.9771V24.5315Z" fill="white"></path>
<path d="M38.9771 25.4683H38.043V26.407H38.9771V25.4683Z" fill="white"></path>
<path d="M38.9771 26.407H38.043V27.3457H38.9771V26.407Z" fill="white"></path>
<path d="M38.9771 27.3438H38.043V28.2825H38.9771V27.3438Z" fill="white"></path>
<path d="M38.9771 28.2825H38.043V29.2212H38.9771V28.2825Z" fill="white"></path>
<path d="M38.9771 29.219H38.043V30.1577H38.9771V29.219Z" fill="white"></path>
<path d="M38.9771 30.158H38.043V31.0967H38.9771V30.158Z" fill="white"></path>
<path d="M38.9771 31.0945H38.043V32.0332H38.9771V31.0945Z" fill="white"></path>
<path d="M38.9771 32.0332H38.043V32.9719H38.9771V32.0332Z" fill="white"></path>
<path d="M38.9771 32.97H38.043V33.9087H38.9771V32.97Z" fill="white"></path>
<path d="M38.9771 33.9084H38.043V34.8472H38.9771V33.9084Z" fill="white"></path>
<path d="M38.9771 34.8455H38.043V35.7842H38.9771V34.8455Z" fill="white"></path>
<path d="M38.9771 35.7842H38.043V36.7229H38.9771V35.7842Z" fill="white"></path>
<path d="M20.2872 36.7207H19.353V37.6594H20.2872V36.7207Z" fill="white"></path>
<path d="M18.4185 35.7842H17.4844V36.7229H18.4185V35.7842Z" fill="white"></path>
<path d="M17.485 35.7842H16.5508V36.7229H17.485V35.7842Z" fill="white"></path>
<path d="M19.3538 36.7207H18.4197V37.6594H19.3538V36.7207Z" fill="white"></path>
<path d="M20.2872 37.6594H19.353V38.5982H20.2872V37.6594Z" fill="white"></path>
<path d="M19.3538 37.6594H18.4197V38.5982H19.3538V37.6594Z" fill="white"></path>
<path d="M37.108 36.7207H36.1738V37.6594H37.108V36.7207Z" fill="white"></path>
<path d="M37.108 37.6594H36.1738V38.5982H37.108V37.6594Z" fill="white"></path>
<path d="M38.0435 36.7207H37.1094V37.6594H38.0435V36.7207Z" fill="white"></path>
<path d="M38.0435 37.6594H37.1094V38.5982H38.0435V37.6594Z" fill="white"></path>
<path d="M21.2227 37.6594H20.2886V38.5982H21.2227V37.6594Z" fill="white"></path>
<path d="M22.1561 37.6594H21.2219V38.5982H22.1561V37.6594Z" fill="white"></path>
<path d="M23.0916 37.6594H22.1575V38.5982H23.0916V37.6594Z" fill="white"></path>
<path d="M24.0252 37.6594H23.0911V38.5982H24.0252V37.6594Z" fill="white"></path>
<path d="M24.961 37.6594H24.0269V38.5982H24.961V37.6594Z" fill="white"></path>
<path d="M25.8946 37.6594H24.9604V38.5982H25.8946V37.6594Z" fill="white"></path>
<path d="M26.8302 37.6594H25.896V38.5982H26.8302V37.6594Z" fill="white"></path>
<path d="M27.7635 37.6594H26.8293V38.5982H27.7635V37.6594Z" fill="white"></path>
<path d="M28.6991 37.6594H27.7649V38.5982H28.6991V37.6594Z" fill="white"></path>
<path d="M29.6324 37.6594H28.6982V38.5982H29.6324V37.6594Z" fill="white"></path>
<path d="M30.568 37.6594H29.6338V38.5982H30.568V37.6594Z" fill="white"></path>
<path d="M31.5013 37.6594H30.5671V38.5982H31.5013V37.6594Z" fill="white"></path>
<path d="M32.4369 37.6594H31.5027V38.5982H32.4369V37.6594Z" fill="white"></path>
<path d="M33.3704 37.6594H32.4363V38.5982H33.3704V37.6594Z" fill="white"></path>
<path d="M34.3058 37.6594H33.3716V38.5982H34.3058V37.6594Z" fill="white"></path>
<path d="M35.2391 37.6594H34.3049V38.5982H35.2391V37.6594Z" fill="white"></path>
<path d="M36.1747 37.6594H35.2405V38.5982H36.1747V37.6594Z" fill="white"></path>
<path d="M21.2227 38.5959H20.2886V39.5347H21.2227V38.5959Z" fill="white"></path>
<path d="M22.1561 38.5959H21.2219V39.5347H22.1561V38.5959Z" fill="white"></path>
<path d="M23.0916 38.5959H22.1575V39.5347H23.0916V38.5959Z" fill="white"></path>
<path d="M24.0252 38.5959H23.0911V39.5347H24.0252V38.5959Z" fill="white"></path>
<path d="M24.961 38.5959H24.0269V39.5347H24.961V38.5959Z" fill="white"></path>
<path d="M25.8946 38.5959H24.9604V39.5347H25.8946V38.5959Z" fill="white"></path>
<path d="M26.8302 38.5959H25.896V39.5347H26.8302V38.5959Z" fill="white"></path>
<path d="M27.7635 38.5959H26.8293V39.5347H27.7635V38.5959Z" fill="white"></path>
<path d="M28.6991 38.5959H27.7649V39.5347H28.6991V38.5959Z" fill="white"></path>
<path d="M29.6324 38.5959H28.6982V39.5347H29.6324V38.5959Z" fill="white"></path>
<path d="M30.568 38.5959H29.6338V39.5347H30.568V38.5959Z" fill="white"></path>
<path d="M31.5013 38.5959H30.5671V39.5347H31.5013V38.5959Z" fill="white"></path>
<path d="M32.4369 38.5959H31.5027V39.5347H32.4369V38.5959Z" fill="white"></path>
<path d="M33.3704 38.5959H32.4363V39.5347H33.3704V38.5959Z" fill="white"></path>
<path d="M34.3058 38.5959H33.3716V39.5347H34.3058V38.5959Z" fill="white"></path>
<path d="M35.2391 38.5959H34.3049V39.5347H35.2391V38.5959Z" fill="white"></path>
<path d="M36.1747 38.5959H35.2405V39.5347H36.1747V38.5959Z" fill="white"></path>
</svg>
