<svg width="150" height="150" viewBox="0 0 150 150" fill="none" xmlns="http://www.w3.org/2000/svg">
<path d="M0 0H150V150H0V0Z" fill="#f4f4f4"/>
<path d="M45.9322 95.9323L52.6927 102.693L90.1927 65.1928L96.9596 71.9597L103.21 65.7097L96.4427 58.9428L102.693 52.6928L95.9322 45.9323L89.6822 52.1823L82.9088 45.409L76.6588 51.659L83.4258 58.4259L45.9322 95.9323ZM63.6483 51.1485L69.8983 44.8985L76.6588 51.659L70.4153 57.9154L63.6483 51.1485ZM63.6483 51.1485L57.3983 57.3985L50.6314 50.6316L56.8814 44.3816L63.6483 51.1485ZM97.483 84.9831L103.733 78.7331L96.9596 71.9597L90.7096 78.2097L97.483 84.9831ZM97.483 84.9831L91.2329 91.2331L97.9999 98L104.25 91.75L97.483 84.9831Z" fill="black"/>
</svg>
